<?xml version="1.0" encoding="UTF-8"?>
<svg id="Layer_1" data-name="Layer 1" xmlns="http://www.w3.org/2000/svg" xmlns:xlink="http://www.w3.org/1999/xlink" viewBox="0 0 961.48 556.74">
  <defs>
    <style>
      .cls-1 {
        fill: #bf7f5b;
      }

      .cls-2 {
        fill: url(#linear-gradient-2);
      }

      .cls-3 {
        fill: url(#linear-gradient);
      }
    </style>
    <linearGradient id="linear-gradient" x1="511.93" y1="300.67" x2="961.48" y2="300.67" gradientUnits="userSpaceOnUse">
      <stop offset="0" stop-color="#6d6e71"/>
      <stop offset="1" stop-color="#414042"/>
    </linearGradient>
    <linearGradient id="linear-gradient-2" x1="458.77" y1="540.46" x2="574.22" y2="98.54" xlink:href="#linear-gradient"/>
  </defs>
  <path class="cls-1" d="M685.86,366.51c-1.46,2.75-8.47,15.62-23.1,27.87-27.66,23.15-55.17,21.15-79.73,27.67-28.42,7.54-45.69,24.56-60.58,44.06-13.2,17.28-24.54,36.5-40.12,52.76-12.5,13.05-27.72,24.19-48.82,30.91-7.67,2.44-15.49,4.71-23.47,5.9-8.91,1.34-18.19,1.28-27.14.53-4.89-.41-9.75-1.1-14.57-2.04-11.93-2.35-23.54-6.33-34.41-11.78-11.47-5.76-22.1-13.54-29.92-23.82-7.43-9.77-11.85-21.43-13.28-33.6-.38-3.29-.57-6.63-.57-9.95,0-8.65,1.46-17.51,4.56-26.29l43.75-123.99h-99.77c-28.03,0-53.01,17.67-62.32,44.11l-28.19,79.89c-22.17,62.83-81.56,104.86-148.19,104.86l80.75-228.85,35.05-99.36,42.07-119.24.46-1.3C180.51,42.02,239.9,0,306.52,0l-37.45,106.14-42.06,119.24h99.77c28.03,0,53.01-17.67,62.34-44.11l26.51-75.13c11.22-31.81,31.86-58.35,58.13-76.93,26.27-18.58,58.16-29.22,91.89-29.22h5.97c33.81,0,60.12,12.77,81.72,33.48,15.33,14.69,28.31,33.4,39.93,54.37.04.06.06.11.1.17-3.58-5.67-7.75-10.92-12.45-15.68-.52-.53-1.04-1.05-1.57-1.57-5.34-5.16-11.3-9.69-17.74-13.46-1.28-.74-2.58-1.47-3.9-2.16,0-.01-.01-.01-.02-.01-1.29-.68-2.6-1.33-3.93-1.94-2.11-.97-4.24-1.87-6.42-2.69-3.52-1.31-7.12-2.43-10.82-3.32-.82-.2-1.65-.38-2.46-.56-1.33-.28-2.65-.54-4-.76-.24-.05-.48-.09-.72-.12-4.32-.69-8.74-1.08-13.25-1.15-.5-.01-.99-.01-1.49-.01-6.49,0-12.82.67-18.94,1.93-.88.19-1.75.38-2.61.58-2.66.64-5.29,1.39-7.85,2.24-5.9,1.94-11.52,4.47-16.81,7.52-1.19.67-2.35,1.37-3.51,2.11-.47.3-.93.59-1.39.89-18.93,12.42-33.03,31.56-38.97,54.03l-9.18,25.9-.04.07c-.95,1.98-1.81,4.04-2.55,6.14l-.81,2.28-4.52,12.82-22.69,64.28-35.06,99.36-11.35,32.15-.52,1.46-34.16,96.86c.06,0,.12.01.19.02,7.9,1.31,16.16.88,22.01-4.6,1.88-1.76,3.51-3.72,4.97-5.81.71-1.02,1.37-2.07,2.01-3.13,2.18-3.59,4-7.44,5.9-11.18,14.09-27.87,32.83-53.25,59-70.93,14.29-9.65,31.16-17.76,48.58-22.23,7.65-1.97,15.41-3.22,23.09-3.6,1.83-.1,3.67-.14,5.49-.12,25.84.17,56.04,3.94,78.92-10.73,17.7-11.35,24.09-29.56,30.94-48.23,15.64,25.18,14.7,66.23,1.15,91.85Z"/>
  <polygon class="cls-1" points="710.83 118.38 710.81 118.36 709.89 116.75 710.83 118.38"/>
  <path class="cls-3" d="M961.48,556.74h-28.72c-52.68,0-101.33-28.21-127.47-73.95l-149.51-261.5-38.94-68.1-3.52-6.17-1.52-2.65c-2.43-4.22-5.29-8.17-8.52-11.79-10.32-10.06-24.42-16.26-39.97-16.26-5.83,0-11.47.87-16.77,2.5-15.18,4.63-27.68,15.42-34.61,29.45l.81-2.28c.74-2.11,1.6-4.16,2.55-6.14l.04-.07,9.18-25.9c5.93-22.47,20.04-41.6,38.97-54.03.46-.3.92-.59,1.39-.89,1.15-.73,2.32-1.44,3.51-2.11,5.29-3.05,10.91-5.57,16.81-7.52,2.56-.85,5.19-1.6,7.85-2.24.87-.2,1.73-.4,2.61-.58,6.12-1.25,12.46-1.92,18.96-1.92.5,0,.99,0,1.49.01,4.5.07,8.91.46,13.23,1.14.24.04.48.07.72.12,1.34.22,2.68.47,4,.76.82.17,1.65.36,2.46.56,3.7.89,7.31,2.01,10.82,3.32,2.18.82,4.31,1.72,6.42,2.69,1.33.62,2.64,1.26,3.93,1.94.01,0,.02,0,.02.01,1.33.68,2.63,1.41,3.9,2.16,6.44,3.78,12.4,8.3,17.74,13.46.53.52,1.05,1.04,1.57,1.57,4.69,4.76,8.87,10.01,12.45,15.68-.04-.06-.06-.11-.1-.17.05.06.09.12.12.19.01.01.02.04.02.05l16.5,28.66.92,1.61.02.02,250.65,438.36Z"/>
  <path class="cls-1" d="M657.69,55.15c1.33.68,2.63,1.41,3.9,2.16-1.28-.76-2.58-1.47-3.9-2.16Z"/>
  <path class="cls-1" d="M693.34,88.02c-3.58-5.67-7.75-10.92-12.45-15.68,4.64,4.69,8.79,9.9,12.35,15.51.04.06.06.11.1.17Z"/>
  <path class="cls-2" d="M613.32,147.03l-67.04,190.32c-17.41,4.47-34.28,12.58-48.58,22.23-26.17,17.69-44.91,43.06-59,70.93-1.9,3.74-3.72,7.59-5.9,11.18l113.74-322.87c5.3-1.63,10.94-2.5,16.77-2.5,15.54,0,29.65,6.21,39.97,16.26,3.23,3.62,6.09,7.57,8.52,11.79l1.52,2.65Z"/>
</svg>